HIERARCHY
ROOT hip
{
  OFFSET 0 0 0
  CHANNELS 6 Xposition Yposition Zposition Zrotation Yrotation Xrotation
  JOINT abdomen
  {
    OFFSET 0 20.6881 -0.73152
    CHANNELS 3 Zrotation Xrotation Yrotation
    JOINT chest
    {
      OFFSET 0 11.7043 -0.48768
      CHANNELS 3 Zrotation Xrotation Yrotation
      JOINT neck
      {
        OFFSET 0 22.1894 -2.19456
        CHANNELS 3 Zrotation Xrotation Yrotation
        JOINT head
        {
          OFFSET -0.24384 7.07133 1.2192
          CHANNELS 3 Zrotation Xrotation Yrotation
          JOINT leftEye
          {
            OFFSET 4.14528 8.04674 8.04672
            CHANNELS 3 Zrotation Xrotation Yrotation
            End Site
            {
              OFFSET 1 0 0
            }
          }
          JOINT rightEye
          {
            OFFSET -3.6576 8.04674 8.04672
            CHANNELS 3 Zrotation Xrotation Yrotation
            End Site
            {
              OFFSET 1 0 0
            }
          }
        }
      }
      JOINT rCollar
      {
        OFFSET -2.68224 19.2634 -4.8768
        CHANNELS 3 Zrotation Xrotation Yrotation
        JOINT rShldr
        {
          OFFSET -8.77824 -1.95073 1.46304
          CHANNELS 3 Zrotation Xrotation Yrotation
          JOINT rForeArm
          {
            OFFSET -28.1742 -1.7115 0.48768
            CHANNELS 3 Zrotation Xrotation Yrotation
            JOINT rHand
            {
              OFFSET -22.5879 0.773209 7.07136
              CHANNELS 3 Zrotation Xrotation Yrotation
              JOINT rThumb1
              {
                OFFSET -1.2192 -0.487915 3.41376
                CHANNELS 3 Zrotation Xrotation Yrotation
                JOINT rThumb2
                {
                  OFFSET -3.37035 -0.52449 3.41376
                  CHANNELS 3 Zrotation Xrotation Yrotation
                  End Site
                  {
                    OFFSET -1.78271 -1.18214 1.43049
                  }
                }
              }
              JOINT rIndex1
              {
                OFFSET -7.75947 0.938293 5.60832
                CHANNELS 3 Zrotation Xrotation Yrotation
                JOINT rIndex2
                {
                  OFFSET -2.54057 -0.884171 1.56538
                  CHANNELS 3 Zrotation Xrotation Yrotation
                  End Site
                  {
                    OFFSET -1.62519 -0.234802 1.16502
                  }
                }
              }
              JOINT rMid1
              {
                OFFSET -8.24714 1.18213 3.41376
                CHANNELS 3 Zrotation Xrotation Yrotation
                JOINT rMid2
                {
                  OFFSET -3.10165 -0.590103 1.0647
                  CHANNELS 3 Zrotation Xrotation Yrotation
                  End Site
                  {
                    OFFSET -2.48547 -0.328903 0.83742
                  }
                }
              }
              JOINT rRing1
              {
                OFFSET -8.82822 0.546677 1.51678
                CHANNELS 3 Zrotation Xrotation Yrotation
                JOINT rRing2
                {
                  OFFSET -2.60934 -0.819778 -0.0198488
                  CHANNELS 3 Zrotation Xrotation Yrotation
                  End Site
                  {
                    OFFSET -2.33842 -0.294052 0.168128
                  }
                }
              }
              JOINT rPinky1
              {
                OFFSET -8.27202 -0.0477905 -0.4584
                CHANNELS 3 Zrotation Xrotation Yrotation
                JOINT rPinky2
                {
                  OFFSET -1.82734 -0.647385 -0.700984
                  CHANNELS 3 Zrotation Xrotation Yrotation
                  End Site
                  {
                    OFFSET -1.69225 -0.51767 -0.607171
                  }
                }
              }
            }
          }
        }
      }
      JOINT lCollar
      {
        OFFSET 2.68224 19.2634 -4.8768
        CHANNELS 3 Zrotation Xrotation Yrotation
        JOINT lShldr
        {
          OFFSET 8.77824 -1.95073 1.46304
          CHANNELS 3 Zrotation Xrotation Yrotation
          JOINT lForeArm
          {
            OFFSET 28.1742 -1.7115 0.48768
            CHANNELS 3 Zrotation Xrotation Yrotation
            JOINT lHand
            {
              OFFSET 22.5879 0.773209 7.07136
              CHANNELS 3 Zrotation Xrotation Yrotation
              JOINT lThumb1
              {
                OFFSET 1.2192 -0.487915 3.41376
                CHANNELS 3 Zrotation Xrotation Yrotation
                JOINT lThumb2
                {
                  OFFSET 3.37035 -0.52449 3.41376
                  CHANNELS 3 Zrotation Xrotation Yrotation
                  End Site
                  {
                    OFFSET 1.78271 -1.18214 1.43049
                  }
                }
              }
              JOINT lIndex1
              {
                OFFSET 7.75947 0.938293 5.60832
                CHANNELS 3 Zrotation Xrotation Yrotation
                JOINT lIndex2
                {
                  OFFSET 2.54057 -0.884171 1.56538
                  CHANNELS 3 Zrotation Xrotation Yrotation
                  End Site
                  {
                    OFFSET 1.62519 -0.234802 1.16502
                  }
                }
              }
              JOINT lMid1
              {
                OFFSET 8.24714 1.18213 3.41376
                CHANNELS 3 Zrotation Xrotation Yrotation
                JOINT lMid2
                {
                  OFFSET 3.10165 -0.590103 1.0647
                  CHANNELS 3 Zrotation Xrotation Yrotation
                  End Site
                  {
                    OFFSET 2.48547 -0.328903 0.83742
                  }
                }
              }
              JOINT lRing1
              {
                OFFSET 8.82822 0.546677 1.51678
                CHANNELS 3 Zrotation Xrotation Yrotation
                JOINT lRing2
                {
                  OFFSET 2.60934 -0.819778 -0.0198488
                  CHANNELS 3 Zrotation Xrotation Yrotation
                  End Site
                  {
                    OFFSET 2.33842 -0.294052 0.168128
                  }
                }
              }
              JOINT lPinky1
              {
                OFFSET 8.27202 -0.0477905 -0.4584
                CHANNELS 3 Zrotation Xrotation Yrotation
                JOINT lPinky2
                {
                  OFFSET 1.82734 -0.647385 -0.700984
                  CHANNELS 3 Zrotation Xrotation Yrotation
                  End Site
                  {
                    OFFSET 1.69225 -0.51767 -0.607171
                  }
                }
              }
            }
          }
        }
      }
    }
  }
  JOINT rButtock
  {
    OFFSET -8.77824 4.35084 1.2192
    CHANNELS 3 Zrotation Xrotation Yrotation
    JOINT rThigh
    {
      OFFSET 0 -1.70687 -2.19456
      CHANNELS 3 Zrotation Xrotation Yrotation
      JOINT rShin
      {
        OFFSET 0 -36.8199 0.73152
        CHANNELS 3 Zrotation Xrotation Yrotation
        JOINT rFoot
        {
          OFFSET 0.73152 -45.1104 -5.12064
          CHANNELS 3 Zrotation Xrotation Yrotation
          End Site
          {
            OFFSET -1.1221 -3.69964 12.103
          }
        }
      }
    }
  }
  JOINT lButtock
  {
    OFFSET 8.77824 4.35084 1.2192
    CHANNELS 3 Zrotation Xrotation Yrotation
    JOINT lThigh
    {
      OFFSET 0 -1.70687 -2.19456
      CHANNELS 3 Zrotation Xrotation Yrotation
      JOINT lShin
      {
        OFFSET 0 -36.8199 0.73152
        CHANNELS 3 Zrotation Xrotation Yrotation
        JOINT lFoot
        {
          OFFSET -0.73152 -45.1104 -5.12064
          CHANNELS 3 Zrotation Xrotation Yrotation
          End Site
          {
            OFFSET 1.1221 -3.69964 12.103
          }
        }
      }
    }
  }
}
MOTION
Frames:	4
Frame Time:	0.03333
0.0017912127077579498 62.17202544212341 0.07099155336618423 -4.021032333374023 1.783491611480713 5.150278091430664 -2.4668121337890625 14.682031631469727 3.6198642253875732 2.710954427719116 -9.747303009033203 1.026607871055603 -5.113620281219482 14.951566696166992 -3.6298935413360596 8.765002250671387 -24.34659767150879 -5.142628192901611 -0.06383467465639114 -0.03140588477253914 -0.025037270039319992 0.060312941670417786 -0.025667667388916016 0.004905282985419035 -0.06300045549869537 0.05985137075185776 0.05639682337641716 44.83427810668945 37.21196365356445 19.61111831665039 -27.60897445678711 -28.481189727783203 64.66262817382812 -0.224557563662529 -12.113371849060059 -1.7874773740768433 0.0701899379491806 -0.012862753123044968 -0.07096903026103973 -0.019152499735355377 -0.04755548760294914 0.022758211940526962 0.07944151759147644 -0.06270956248044968 0.05352824181318283 7.784346580505371 5.458266735076904 0.43476247787475586 -0.013953981921076775 -0.04269736260175705 -0.02275264821946621 2.8767921924591064 0.972347617149353 0.14814260601997375 -0.0008329044794663787 0.012920873239636421 0.10370548069477081 10.217833518981934 0.6682245135307312 -0.01854102686047554 -0.0639861673116684 -0.07295732200145721 0.0007521241786889732 2.154575824737549 -0.6690672636032104 -0.24607062339782715 -0.05454269424080849 0.0029514110647141933 0.04693642258644104 -52.29186248779297 39.69198989868164 -29.790605545043945 27.024972915649414 -26.4094181060791 -61.56857681274414 0.2758737802505493 -13.942991256713867 2.000200033187866 -0.10255175828933716 -0.004156290553510189 -0.05745751038193703 -0.045656584203243256 0.039689235389232635 -0.035334665328264236 -0.09304214268922806 -0.09518696367740631 0.010086454451084137 -7.643983364105225 5.464425086975098 -0.48231950402259827 -0.12013459950685501 -0.1089208573102951 -0.08656385540962219 -2.915966749191284 0.9957948923110962 -0.03982159495353699 -0.14657941460609436 0.12215009331703186 -0.0056946659460663795 -10.352717399597168 0.8187505602836609 -0.05208824574947357 0.022077258676290512 -0.06967858970165253 -0.013247473165392876 -2.191239356994629 -0.7023722529411316 0.11129166930913925 0.009276299737393856 0.00484025152400136 -0.017093095928430557 -25.09917449951172 -40.402587890625 -20.54044532775879 -1.3622320890426636 65.05758666992188 2.468066453933716 -3.51159405708313 -10.55584716796875 -9.642816543579102 0.05034800246357918 0.03920086473226547 0.04399191215634346 29.73147964477539 -39.72257614135742 22.72125816345215 1.6386287212371826 66.10159301757812 -2.8469152450561523 4.442663192749023 -11.132817268371582 13.708394050598145
-0.041673704981803894 61.98529601097107 0.1234147697687149 -3.8656511306762695 2.1534957885742188 5.143581390380859 -2.506314992904663 14.62813663482666 3.603823661804199 2.7335622310638428 -9.782746315002441 1.0233291387557983 -5.057338714599609 14.972482681274414 -3.55446195602417 8.783056259155273 -24.434452056884766 -4.962777137756348 -0.06128005310893059 -0.10779695957899094 -0.08288902789354324 0.07748603075742722 -0.10717803984880447 0.025455810129642487 -0.13225312530994415 0.15338140726089478 0.14199033379554749 44.74215316772461 36.76750564575195 19.85337257385254 -27.564395904541016 -28.490985870361328 64.66511535644531 -0.25353220105171204 -11.965558052062988 -1.8369218111038208 0.09008573740720749 -0.018594471737742424 -0.0688483789563179 -0.05888437107205391 -0.06419850140810013 -0.03037055768072605 0.12938140332698822 -0.11427751928567886 0.11680028587579727 7.8805131912231445 5.422155857086182 0.41638457775115967 -0.039973098784685135 -0.060469288378953934 0.05374537780880928 2.9331345558166504 0.9523093104362488 0.23967844247817993 -0.015564157627522945 0.00014333294529933482 0.17807593941688538 10.146810531616211 0.6714997887611389 -0.027559278532862663 -0.08759263157844543 -0.19051310420036316 -0.06847674399614334 2.1759092807769775 -0.6287074089050293 -0.20041532814502716 -0.13529619574546814 0.02198823168873787 0.11200730502605438 -52.07081604003906 39.66846466064453 -30.053691864013672 27.005884170532227 -26.450992584228516 -61.67665100097656 0.3259473741054535 -14.276788711547852 1.9524719715118408 -0.2155178338289261 -0.022126320749521255 -0.12206142395734787 -0.11456012725830078 0.03930468484759331 -0.031313613057136536 -0.18390585482120514 -0.098175048828125 0.03797250986099243 -7.613461971282959 5.432153701782227 -0.4637671411037445 -0.2348213791847229 -0.18499541282653809 -0.1464453935623169 -2.915522575378418 1.035513997077942 0.021783186122775078 -0.3275207579135895 0.19462591409683228 -0.05749819055199623 -10.433005332946777 0.8890673518180847 -0.03407560661435127 0.11069489270448685 -0.0886659324169159 0.004133101087063551 -2.173348903656006 -0.6125938892364502 0.051034655421972275 0.07269041240215302 0.02630927599966526 0.0004958252538926899 -25.143375396728516 -40.68833541870117 -20.32799530029297 -1.2566403150558472 64.80650329589844 2.410928249359131 -3.379575490951538 -10.140270233154297 -9.392836570739746 0.09965254366397858 0.08929197490215302 0.1089349016547203 29.389759063720703 -39.5763053894043 22.436885833740234 1.6653048992156982 66.12588500976562 -2.9840896129608154 4.446226119995117 -11.095646858215332 13.686857223510742
-0.31161289662122726 71.10289335250854 0.4873257130384445 -73.22119140625 54.261775970458984 -76.95120239257812 2.986664295196533 37.78215408325195 -11.437268257141113 11.315078735351562 -12.290942192077637 -1.4016631841659546 -9.90506362915039 20.561166763305664 -11.905864715576172 25.001487731933594 -28.17252540588379 -20.014211654663086 -0.17347104847431183 -0.07825033366680145 -0.13233911991119385 0.5216198563575745 0.013550733216106892 0.11540128290653229 -0.5896760821342468 0.641852080821991 0.3191213309764862 56.886016845703125 -1.4552538394927979 -7.062250137329102 -27.250526428222656 -30.75831413269043 69.99874877929688 -1.0756583213806152 -21.28922462463379 -4.282081604003906 0.47626206278800964 0.055795107036828995 -0.10141725838184357 -0.11288370192050934 -0.18998700380325317 -0.3052119016647339 0.4137656092643738 0.17174066603183746 0.25335514545440674 8.268366813659668 5.08681058883667 0.20664724707603455 0.03869030997157097 0.3486248254776001 0.08954381197690964 3.1247401237487793 1.0494189262390137 0.27700483798980713 0.16594581305980682 0.2908358573913574 0.07225847244262695 9.530627250671387 0.8737699389457703 -0.26537755131721497 0.3774155080318451 -0.49286359548568726 -0.08716821670532227 2.7578437328338623 -0.2875502407550812 -0.03952048718929291 -0.08034706115722656 0.11657551676034927 0.2957119643688202 -0.16335752606391907 33.326812744140625 -83.68273162841797 27.630023956298828 -41.615013122558594 -87.92558288574219 1.7035133838653564 -30.54100227355957 5.598577976226807 -0.2395823448896408 -0.5574459433555603 -0.24246186017990112 0.04217272251844406 0.20327018201351166 0.1939871907234192 -0.49381837248802185 -0.4438195824623108 0.2409498542547226 -7.707451343536377 5.6884894371032715 -0.6595419049263 -0.5160930752754211 -0.4196620285511017 -0.5626140236854553 -3.1554179191589355 1.2114907503128052 0.4080826938152313 -0.7683476209640503 0.422237366437912 -0.03274562954902649 -10.6719388961792 0.9064942002296448 -0.3238879442214966 0.3015860617160797 -0.7041093111038208 -0.05236474797129631 -2.290804862976074 -0.17285026609897614 -0.21016909182071686 0.5108751654624939 0.09978807717561722 -0.09492417424917221 -121.33319854736328 -53.938777923583984 -113.75582122802734 -176.25006103515625 65.45082092285156 177.103515625 3.0525262355804443 1.4385595321655273 15.445768356323242 0.5752038359642029 0.4373188614845276 0.03663316369056702 30.169885635375977 -30.317895889282227 21.27548599243164 2.76120924949646 71.29551696777344 -5.687439918518066 9.481653213500977 -16.648225784301758 18.529367446899414
-0.33084070309996605 71.37020230293274 0.8655627258121967 -72.77839660644531 53.21708297729492 -76.92296600341797 9.809765815734863 38.958988189697266 -12.783670425415039 11.865981101989746 -13.908452987670898 -0.5237088203430176 -9.069245338439941 20.590999603271484 -13.648994445800781 27.89206886291504 -28.47264862060547 -19.546667098999023 0.14550399780273438 -0.3609377145767212 0.7634566426277161 0.1974223554134369 -0.38806435465812683 -0.17971190810203552 0.2789580225944519 0.570375382900238 0.7091189026832581 55.743797302246094 -4.192924976348877 -9.095710754394531 -28.37350082397461 -30.004575729370117 68.6075668334961 0.04791160300374031 -16.608470916748047 -2.9188356399536133 0.20891349017620087 -0.17615540325641632 -0.4282437264919281 -0.42813795804977417 0.14716535806655884 0.24581089615821838 0.5950742363929749 -0.6384078860282898 0.35234376788139343 7.8743486404418945 5.3785719871521 0.8809809684753418 -0.2779364287853241 0.07227934896945953 0.29275327920913696 2.7722060680389404 0.8724080920219421 0.18927574157714844 0.3861255943775177 0.48536697030067444 0.6744624376296997 10.253059387207031 0.4084632396697998 -0.1548844277858734 -0.25118690729141235 -0.704399824142456 0.03815297782421112 1.9283795356750488 -0.35724133253097534 0.023231809958815575 -0.21581777930259705 -0.43068060278892517 0.40880948305130005 -4.82042932510376 45.52361297607422 -79.14028930664062 27.98771858215332 -43.14683151245117 -88.85993957519531 0.7637957334518433 -23.810876846313477 3.56782865524292 -0.0034615756012499332 -0.27833834290504456 0.06981170922517776 0.1307239830493927 0.13743357360363007 0.2551243007183075 0.04562145844101906 -0.09009619057178497 -0.23366697132587433 -7.810776710510254 5.82427978515625 -0.11966355890035629 0.1938471794128418 -0.2878761887550354 -0.226422980427742 -2.8200011253356934 1.3090993165969849 -0.8347584009170532 -0.6969636678695679 0.5761099457740784 0.1349618285894394 -10.639886856079102 0.9017952680587769 -0.5878924131393433 -0.12166845053434372 0.07346782833337784 -0.43703046441078186 -2.3457789421081543 -0.3624486029148102 0.2847009599208832 0.011415352113544941 -0.38089466094970703 -0.13661687076091766 -116.8747787475586 -53.803001403808594 -114.392333984375 -177.55564880371094 62.64254379272461 177.44728088378906 2.9259073734283447 2.9323623180389404 8.178680419921875 0.21287313103675842 -0.028611214831471443 0.2188185155391693 39.00578689575195 -39.93608474731445 26.884288787841797 -0.3494061529636383 73.89875030517578 -2.124089241027832 9.382960319519043 -15.900975227355957 20.228530883789062
